grf
version=1
nRows=15
nColumns=37
inDegrees=no
endheader
time	ground_force_1_vx	ground_force_1_vy	ground_force_1_vz	ground_force_1_px	ground_force_1_py	ground_force_1_pz	ground_moment_1_mx	ground_moment_1_my	ground_moment_1_mz	ground_force_2_vx	ground_force_2_vy	ground_force_2_vz	ground_force_2_px	ground_force_2_py	ground_force_2_pz	ground_moment_2_mx	ground_moment_2_my	ground_moment_2_mz	ground_force_3_vx	ground_force_3_vy	ground_force_3_vz	ground_force_3_px	ground_force_3_py	ground_force_3_pz	ground_moment_3_mx	ground_moment_3_my	ground_moment_3_mz	ground_force_4_vx	ground_force_4_vy	ground_force_4_vz	ground_force_4_px	ground_force_4_py	ground_force_4_pz	ground_moment_4_mx	ground_moment_4_my	ground_moment_4_mz
      2.57000000	      0.00000000	     -0.00000000	      0.00000000	      0.00000000	      0.00000000	      0.00000000	      0.00000000	      0.00000000	      0.00000000	     -3.22717047	     44.98359680	   -404.39105225	   -377.96378591	  -1074.30074441	      0.00000000	      0.00000000	     -0.00000000	  -1851.68202650	    -36.18253299	    -40.54346150	   -278.28890991	   -274.06284187	   -689.87565666	      0.00000000	     -0.00000000	     -0.00000000	   1507.58536924	      0.00000000	     -0.00000000	      0.00000000	      0.00000000	      0.00000000	      0.00000000	      0.00000000	      0.00000000	      0.00000000
      2.58000000	      0.00000000	     -0.00000000	      0.00000000	      0.00000000	      0.00000000	      0.00000000	      0.00000000	      0.00000000	      0.00000000	     -2.76552582	     44.46813583	   -407.82849121	   -379.39211196	  -1074.37596197	      0.00000000	      0.00000000	     -0.00000000	  -1615.82558701	    -35.04856445	    -38.35101393	   -270.28936768	   -275.65231226	   -688.42494321	      0.00000000	      0.00000000	      0.00000000	   1177.79790244	      0.00000000	     -0.00000000	      0.00000000	      0.00000000	      0.00000000	      0.00000000	      0.00000000	      0.00000000	      0.00000000
      2.59000000	      0.00000000	     -0.00000000	      0.00000000	      0.00000000	      0.00000000	      0.00000000	      0.00000000	      0.00000000	      0.00000000	     -2.77360725	     44.74749756	   -411.10144043	   -381.62482232	  -1071.94404591	      0.00000000	     -0.00000000	     -0.00000000	  -1559.69308880	    -33.54457789	    -36.05103772	   -257.32476807	   -277.53549777	   -689.87936845	      0.00000000	      0.00000000	      0.00000000	    734.50661590	      0.00000000	     -0.00000000	      0.00000000	      0.00000000	      0.00000000	      0.00000000	      0.00000000	      0.00000000	      0.00000000
      2.60000000	      0.00000000	     -0.00000000	      0.00000000	      0.00000000	      0.00000000	      0.00000000	      0.00000000	      0.00000000	      0.00000000	     -2.31124115	     44.65433502	   -419.78430176	   -381.53137147	  -1071.83994727	      0.00000000	      0.00000000	     -0.00000000	  -1093.35324557	    -31.96821309	    -32.80758006	   -243.75553894	   -279.33634992	   -690.07336052	      0.00000000	      0.00000000	      0.00000000	    408.02986030	      0.00000000	     -0.00000000	      0.00000000	      0.00000000	      0.00000000	      0.00000000	      0.00000000	      0.00000000	      0.00000000
      2.61000000	      0.00000000	     -0.00000000	      0.00000000	      0.00000000	      0.00000000	      0.00000000	      0.00000000	      0.00000000	      0.00000000	     -2.40868378	     44.29364014	   -423.81591797	   -386.19128431	  -1068.92319364	      0.00000000	     -0.00000000	     -0.00000000	  -1056.90926898	    -30.09345702	    -30.39898419	   -233.33009338	   -285.39072020	   -691.67157129	      0.00000000	      0.00000000	      0.00000000	    182.71433249	      0.00000000	     -0.00000000	      0.00000000	      0.00000000	      0.00000000	      0.00000000	      0.00000000	      0.00000000	      0.00000000
      2.62000000	      0.00000000	     -0.00000000	      0.00000000	      0.00000000	      0.00000000	      0.00000000	      0.00000000	      0.00000000	      0.00000000	     -1.87766004	     43.62289047	   -434.29382324	   -387.96431662	  -1067.92418463	      0.00000000	      0.00000000	     -0.00000000	   -587.81464228	    -24.98185968	    -27.24452945	   -253.41851807	   -302.14825842	   -698.78019273	      0.00000000	      0.00000000	     -0.00000000	   -404.05790797	      0.00000000	     -0.00000000	      0.00000000	      0.00000000	      0.00000000	      0.00000000	      0.00000000	      0.00000000	      0.00000000
      2.63000000	      0.00000000	     -0.00000000	      0.00000000	      0.00000000	      0.00000000	      0.00000000	      0.00000000	      0.00000000	      0.00000000	     -1.71225858	     44.10231018	   -446.29986572	   -391.43904695	  -1065.98100880	      0.00000000	      0.00000000	     -0.00000000	   -487.89133131	    -14.78109395	    -25.88669266	   -312.80532837	   -329.74023969	   -706.14280787	      0.00000000	      0.00000000	     -0.00000000	   -929.30236223	      0.00000000	     -0.00000000	      0.00000000	      0.00000000	      0.00000000	      0.00000000	      0.00000000	      0.00000000	      0.00000000
      2.64000000	      0.00000000	     -0.00000000	      0.00000000	      0.00000000	      0.00000000	      0.00000000	      0.00000000	      0.00000000	      0.00000000	     -2.21712613	     44.54332733	   -456.98016357	   -393.62332836	  -1064.91523545	      0.00000000	      0.00000000	     -0.00000000	   -270.78587997	     -1.04465846	    -27.73729315	   -366.43984985	   -349.52304048	   -714.87046156	      0.00000000	      0.00000000	     -0.00000000	   -794.24500420	      0.00000000	     -0.00000000	      0.00000000	      0.00000000	      0.00000000	      0.00000000	      0.00000000	      0.00000000	      0.00000000
      2.65000000	      0.00000000	     -0.00000000	      0.00000000	      0.00000000	      0.00000000	      0.00000000	      0.00000000	      0.00000000	      0.00000000	     -2.77884531	     45.44319916	   -463.65496826	   -396.27672028	  -1065.52205911	      0.00000000	      0.00000000	     -0.00000000	   -219.91123812	      3.83201286	    -30.37397227	   -382.30386353	   -357.92640243	   -717.26181547	      0.00000000	      0.00000000	     -0.00000000	   -473.34125056	      0.00000000	     -0.00000000	      0.00000000	      0.00000000	      0.00000000	      0.00000000	      0.00000000	      0.00000000	      0.00000000
      2.66000000	      0.00000000	     -0.00000000	      0.00000000	      0.00000000	      0.00000000	      0.00000000	      0.00000000	      0.00000000	      0.00000000	     -5.64626980	     45.95520401	   -463.49291992	   -398.45084481	  -1064.33994428	      0.00000000	      0.00000000	     -0.00000000	   -199.08951093	     -3.39760258	    -30.23694009	   -364.33981323	   -360.92629716	   -718.10789632	      0.00000000	     -0.00000000	     -0.00000000	   -684.79613925	      0.00000000	     -0.00000000	      0.00000000	      0.00000000	      0.00000000	      0.00000000	      0.00000000	      0.00000000	      0.00000000
      2.67000000	      0.00000000	     -0.00000000	      0.00000000	      0.00000000	      0.00000000	      0.00000000	      0.00000000	      0.00000000	      0.00000000	     -8.17073822	     45.19369125	   -457.51306152	   -400.33516482	  -1061.93034987	      0.00000000	      0.00000000	     -0.00000000	   -154.15232530	    -11.08434935	    -29.53081034	   -337.14392090	   -362.65339432	   -717.86742265	      0.00000000	      0.00000000	     -0.00000000	   -877.92366013	      0.00000000	     -0.00000000	      0.00000000	      0.00000000	      0.00000000	      0.00000000	      0.00000000	      0.00000000	      0.00000000
      2.68000000	      0.00000000	     -0.00000000	      0.00000000	      0.00000000	      0.00000000	      0.00000000	      0.00000000	      0.00000000	      0.00000000	     -9.45166016	     44.12420273	   -453.46459961	   -404.23917850	  -1061.46885443	      0.00000000	      0.00000000	     -0.00000000	     -2.56701895	    -12.42408811	    -28.52790342	   -317.20977783	   -370.46077074	   -721.91040346	      0.00000000	      0.00000000	     -0.00000000	   -821.06701557	      0.00000000	     -0.00000000	      0.00000000	      0.00000000	      0.00000000	      0.00000000	      0.00000000	      0.00000000	      0.00000000
      2.69000000	      0.00000000	     -0.00000000	      0.00000000	      0.00000000	      0.00000000	      0.00000000	      0.00000000	      0.00000000	      0.00000000	     -8.30601215	     43.24710083	   -449.17016602	   -408.19079672	  -1059.71030508	      0.00000000	      0.00000000	      0.00000000	    188.25891570	     -8.62814288	    -27.83518525	   -311.00283813	   -381.08080644	   -722.32917468	      0.00000000	      0.00000000	     -0.00000000	  -1022.63380247	      0.00000000	     -0.00000000	      0.00000000	      0.00000000	      0.00000000	      0.00000000	      0.00000000	      0.00000000	      0.00000000
      2.70000000	      0.00000000	     -0.00000000	      0.00000000	      0.00000000	      0.00000000	      0.00000000	      0.00000000	      0.00000000	      0.00000000	     -5.24907875	     41.81649017	   -445.39776611	   -412.69750022	  -1057.60894892	      0.00000000	      0.00000000	      0.00000000	    434.65515319	     -1.90524374	    -28.49981864	   -307.95172119	   -392.03261181	   -727.21600525	      0.00000000	      0.00000000	     -0.00000000	  -1369.60262871	      0.00000000	     -0.00000000	      0.00000000	      0.00000000	      0.00000000	      0.00000000	      0.00000000	      0.00000000	      0.00000000
      2.71000000	      0.00000000	     -0.00000000	      0.00000000	      0.00000000	      0.00000000	      0.00000000	      0.00000000	      0.00000000	      0.00000000	     -0.83202958	     40.45064926	   -440.88391113	   -418.24155853	  -1056.91402824	      0.00000000	     -0.00000000	      0.00000000	    376.48077558	      2.83874262	    -28.54692675	   -304.59179688	   -405.69705132	   -732.45355630	      0.00000000	      0.00000000	     -0.00000000	  -1396.71119595	      0.00000000	     -0.00000000	      0.00000000	      0.00000000	      0.00000000	      0.00000000	      0.00000000	      0.00000000	      0.00000000
